# xmcd CD database file
#
# Track frame offsets:
#	150
#	82078
#	147590
#	193797
#	242397
#
# Disc length: 3977 seconds
#
# Revision: 0
# Processed by: cddbd v1.5.2PL0 Copyright (c) Steve Scherf et al.
# Submitted via: CDex 1.70beta2
#
DISCID=420f8705
DTITLE=パワートリオ - ボーダーズ
DYEAR=2005
DGENRE=Jazz
TTITLE0=祝祭のボーダー | The Border of Festivity
TTITLE1=漆黒のボーダー | The Border of Blackness
TTITLE2=砂のボーダー | The Border of Sand
TTITLE3=ねじれのボーダー | The Bent Border
TTITLE4=生命のボーダー | The Border of Life
EXTD=YEAR: 2005
EXTT0=
EXTT1=
EXTT2=
EXTT3=
EXTT4=
PLAYORDER=
